<?xml version="1.0" encoding="UTF-8"?>
<!-- Generator: Adobe Illustrator 24.0.1, SVG Export Plug-In . SVG Version: 6.00 Build 0)  -->
<svg version="1.1" id="regular" xmlns="http://www.w3.org/2000/svg" xmlns:xlink="http://www.w3.org/1999/xlink" x="0px" y="0px" viewBox="0 0 512 512" style="enable-background:new 0 0 512 512;" xml:space="preserve">
<style type="text/css">
	.st0{fill:#FFFFFF;}
</style>
<path class="st0" d="M443.6,28.4c-5-13.4-14.5-22.6-27.5-26.7c-46.4-14.5-84.9,60.6-120,149.7C280.1,96.1,252.7,28.7,217,7.1  c-14.3-8.6-26.6-7.8-34.4-5.6c-10.1,2.9-23.7,10.5-30.7,30.3c-14.6,41.2,7.6,117.5,36.3,176.3c-14.3-3.1-27.8-1.3-38.8,6.7  c-10.9,7.9-17.4,19.6-18.8,33.8c-1.1,10.5,0.9,22.1,5.4,34.2c-16.1-0.4-30.1,6.4-39.2,20.3c-20.2,30.8-12.9,88,17,133.1  c32.6,49.2,84.6,75.7,146.3,75.7c13.5,0,27.5-1.3,41.9-3.9c105.9-19,154.5-95.7,144.4-227.8l-0.3-3.6c-2.3-31.5-22.6-53.9-50.4-68.9  C423.5,158,460.5,73.2,443.6,28.4L443.6,28.4z M182,42.5c2.7-7.5,6.3-9.4,9.3-10.2c1-0.3,3.8-1.1,9.2,2.2  c23.9,14.5,53.9,78.1,71.1,148.9c-19.7,1.1-41.2,5.3-51.8,16.8C191.7,144.9,171.1,73.4,182,42.5L182,42.5z M284.4,314.5  c-1-3.3-2.2-6.5-3.6-9.7c3.6,0.8,7.3,1.6,10.9,2.1C289,309.2,286.9,312,284.4,314.5L284.4,314.5z M162.3,251.9  c0.7-6.7,3.6-9.6,5.8-11.1c2-1.5,4.7-2.2,7.7-2.2c12,0,30.8,10.8,46.7,31.7c1.3,2,2.7,3.9,4.2,5.7c20.9,28.6,40.1,63.3,23.7,78.1  c-0.1,0.1-12.3,8.5-58.8-42.5C168.1,285.9,161.1,263.9,162.3,251.9L162.3,251.9z M414.1,279.1l0.3,3.6  c5.6,73.1-0.6,172.8-118.2,193.9c-91.3,16.4-136.9-29.3-155.9-58c-24.3-36.8-28.4-80.3-16.9-97.9c3.5-5.4,7.9-7.1,14.7-6  c16.2,2.8,56.1,39.4,66.9,70.4c2.5,7.3,2.8,13.1,0.8,15.4c-2.7,3-6.4,5.8-14,3.4c-14.3-4.4-32.2-25-35-47.4  c-1.1-8.8-9.1-14.9-17.9-13.9c-8.8,1.1-15,9.1-13.9,17.9c4.1,32.7,29.3,65.2,57.3,73.9c18,5.6,35.2,0.9,47.4-12.7  c6-6.8,11.6-18.2,8.4-35.9c3.3,0.8,6.6,1.4,9.9,1.4c3,0,5.9-0.5,8.8-1.2c1.3,34.8,17.7,63.2,18.7,64.9c4.5,7.6,14.3,10,21.9,5.6  c7.6-4.5,10.1-14.3,5.7-21.9c-0.3-0.4-25.1-43.5-9-79.6c10.9-24.6,39-41.8,83.3-50.9c8.6-1.8,14.2-10.2,12.5-18.8  c-1.7-8.6-10-14.2-18.7-12.6c-24,4.6-92,10.9-117.5-14.7c-8.7-8.7-11.7-20.9-9.2-37.3c13.7-7.6,76.1-10.7,124.7,9.8  C397.5,242.5,412.6,258.8,414.1,279.1L414.1,279.1z M365.8,195.3c-15.6-5.1-32-8.4-48.2-10.3c53.5-139.4,78.7-156,89-152.7  c2.6,0.8,5.2,2.2,7.1,7.4C423.1,64.8,401.8,132.8,365.8,195.3L365.8,195.3z"/>
</svg>