<svg id="Layer_1" data-name="Layer 1" xmlns="http://www.w3.org/2000/svg" width="1366" height="768" viewBox="0 0 1366 768">
  <defs>
    <style>
      .cls-1 {
        fill: #fff;
      }

      .cls-2 {
        fill: #12212f;
      }
    </style>
  </defs>
  <title>CM_Blob8</title>
  <g>
    <path class="cls-1" d="M733-239.9917V434H-633V3.03c14.7754-1.059,29.54-2.3094,44.3283-3.1389,35.7449-2.0052,71.2112-.0888,106.2,8.0762,27.5809,6.4364,53.3535,17.6556,78.6572,29.9864,37.58,18.3133,76.8362,29.8871,118.8727,30.9621,29.7223.76,59.1964-1.8516,88.6283-5.8133,46.4129-6.2474,88.4813-22.26,124.68-52.7408C-48.8073-8.86-24.9575-26.7072,1.8958-40.1935c44.158-22.1771,91.39-34.5145,139.5592-43.7257,69.6316-13.3153,140.0955-19.6454,210.7562-23.9076,40.0773-2.4174,80.0266-5.6252,119.6943-12.1126,53.74-8.7889,103.159-26.7861,144.57-63.7614A210.7946,210.7946,0,0,1,687.3022-225.9C702.333-231.1729,717.7545-235.3314,733-239.9917Z" transform="translate(633 334)"/>
    <path class="cls-2" d="M733-239.9917c-15.2455,4.66-30.667,8.8188-45.6978,14.0915a210.7946,210.7946,0,0,0-70.8271,42.1994c-41.4106,36.9753-90.83,54.9725-144.57,63.7614-39.6677,6.4874-79.617,9.6952-119.6943,12.1126-70.6607,4.2622-141.1246,10.5923-210.7562,23.9076C93.2855-74.708,46.0538-62.3706,1.8958-40.1935-24.9575-26.7072-48.8073-8.86-71.6339,10.3616-107.8321,40.8428-149.9,56.855-196.3134,63.1024c-29.4319,3.9617-58.906,6.5734-88.6283,5.8133-42.0365-1.075-81.293-12.6488-118.8727-30.9621-25.3037-12.3308-51.0763-23.55-78.6572-29.9864C-517.46-.1978-552.9268-2.1142-588.6717-.109-603.46.7205-618.2246,1.9709-633,3.03V-334H733Z" transform="translate(633 334)"/>
  </g>
</svg>