<svg data-name="Layer 1" xmlns="http://www.w3.org/2000/svg" viewBox="0 0 99.14 100"><defs><linearGradient id="a" x1="-113.86" y1="26.12" x2="-113.86" y2="-46.94" gradientTransform="scale(1 -1) rotate(45 15.616 167.081)" gradientUnits="userSpaceOnUse"><stop offset="0" stop-color="#00dd74"/><stop offset="1" stop-color="#0ba0e0"/></linearGradient></defs><path d="M69.14 23.07v-3.76a3.76 3.76 0 00-3.76-3.76 3.75 3.75 0 00-3.75 3.76v5.9A3.76 3.76 0 0157.87 29a3.75 3.75 0 01-3.76-3.75V3.76A3.75 3.75 0 0050.36 0a3.76 3.76 0 00-3.76 3.76v61.15a3.76 3.76 0 01-3.76 3.76 3.75 3.75 0 01-3.75-3.76V19.16a3.76 3.76 0 00-3.76-3.76 3.76 3.76 0 00-3.76 3.76v19.46a3.75 3.75 0 01-3.75 3.75 3.75 3.75 0 01-3.76-3.75v-4.36a3.76 3.76 0 00-3.76-3.76 3.76 3.76 0 00-3.75 3.76V65.4a3.75 3.75 0 003.75 3.76 3.76 3.76 0 003.76-3.76V52a3.76 3.76 0 013.76-3.76A3.75 3.75 0 0131.57 52v28.84a3.76 3.76 0 003.76 3.76 3.76 3.76 0 003.76-3.76v-2.55a3.75 3.75 0 013.75-3.76 3.76 3.76 0 013.76 3.76v17.95a3.76 3.76 0 003.76 3.76 3.75 3.75 0 003.75-3.76V38.62a3.76 3.76 0 013.76-3.76 3.76 3.76 0 013.76 3.76v42a3.75 3.75 0 003.75 3.75 3.75 3.75 0 003.76-3.75V64a3.75 3.75 0 013.76-3.75A3.75 3.75 0 0176.65 64v2.37a3.77 3.77 0 003.76 2.82 3.76 3.76 0 003.76-3.76v-31a3.76 3.76 0 00-3.76-3.75 3.75 3.75 0 00-3.76 3.75v16.1a3.75 3.75 0 01-3.75 3.75 3.75 3.75 0 01-3.76-3.75zM7.94 49.36v.94a3.75 3.75 0 01-3.75 3.76A3.76 3.76 0 01.43 50.3v-.94a3.76 3.76 0 013.76-3.76 3.76 3.76 0 013.75 3.76zm91.63 0v.9A3.76 3.76 0 0195.81 54a3.76 3.76 0 01-3.76-3.76v-.9a3.77 3.77 0 013.76-3.76 3.76 3.76 0 013.76 3.76z" transform="translate(-.43)" fill-rule="evenodd" fill="url(#a)"/></svg>