<?xml version="1.0" encoding="UTF-8"?>
<svg data-name="Layer 1" viewBox="0 0 440.84 352.41" xmlns="http://www.w3.org/2000/svg">
<defs>
<clipPath id="ai" transform="translate(0 -92.426)">
<path d="m337.91 209.1 17.402-17.227a53.128 53.128 0 0 1 7.4244-12.408c0.8962-0.7167 2.6034-1.485 1.7852 1.9482s-1.5264 7.08-0.417 7.7472 2.86-1.2116 4.3061 0.0118q1.4457 1.222-9.4716 7.8884l-11.06 18.036z" fill="none"/>
</clipPath>
<clipPath id="c" transform="translate(0 -92.426)">
<path d="m311.76 428.78a13.287 13.287 0 0 0-1.038 4.148 31.055 31.055 0 0 0 0.558 4.885h34.9q1.36-4.5-1.571-4.856t-4.869-0.648l-16.218-7.235a0.6191 0.6191 0 0 0-0.817 0.313l-0.0069 0.016-1.043 2.529a11.126 11.126 0 0 1-4.41 1.266 9.9868 9.9868 0 0 1-3.8071-1.113 1.2378 1.2378 0 0 0-1.6409 0.609q-0.0211 0.044-0.0371 0.086z" fill="none"/>
</clipPath>
<clipPath id="p" transform="translate(0 -92.426)">
<path d="m287.83 194.75c5.9976 4.6488 12.508 20.317 8.7586 23.295-1.4954 1.1872-5.5684 1.7238-10.213 1.1469l9.54 15.238-13.573 6.044-5.026-23.86c-3.9677-1.8979-7.4008-4.8607-8.9749-9.19-4.5416-12.484 13.492-17.324 19.488-12.674z" fill="none"/>
</clipPath>
<clipPath id="g" transform="translate(0 -92.426)">
<path d="M279.5176,190.4919a19.3933,19.3933,0,0,0-5.9592,1.9012,10.6919,10.6919,0,0,0-1.5059-5.2437,16.4712,16.4712,0,0,0-3.59-3.7505,6.686,6.686,0,0,0-2.01-1.3172,4.43,4.43,0,0,0-2.3781-.1754,5.6156,5.6156,0,0,0-2.2026.9764c-.2907.21-.5135.4849-.7922.7076s-.5314.0954-.8557-.0033a4.4193,4.4193,0,0,0-2.4743.1226,5.94,5.94,0,0,0-2.267,1.3533,5.13,5.13,0,0,0-1.423,2.166,3.6581,3.6581,0,0,0-.1908,1.18c.0043.1645.0309.2513-.0845.3662s-.2526.1705-.3706.2745a5.6621,5.6621,0,0,0-1.7695,4.02,9.3565,9.3565,0,0,0,1.0957,3.72,16.7093,16.7093,0,0,0,5.5742,5.5131,9.0906,9.0906,0,0,0,5.3712.5194,13.4332,13.4332,0,0,0-.3784,5.1737,22.3984,22.3984,0,0,0,1.2345,5.5343,18.1416,18.1416,0,0,0,2.4806,4.8918,5.9394,5.9394,0,0,0,3.9984,2.4516,12.6825,12.6825,0,0,0,2.258.0459,13.45,13.45,0,0,0,2.1941-.2378,4.225,4.225,0,0,0,3.308-2.4094,7.504,7.504,0,0,0,.4261-1.6848c.0214-.1979.03-.3256-.1491-.4308a3.2486,3.2486,0,0,0-.7269-.24,5.3348,5.3348,0,0,1-3.16-2.46c-.7432-1.256-1.1492-3.1244-.119-4.2764,1.2716-1.4216,3.3875-1.3825,5.14-1.2472a8.5049,8.5049,0,0,1,1.54-6.6778c1.66-2.0281,4.0577-3.247,5.8453-5.1481a4.4352,4.4352,0,0,0,1.13-1.7079,2.2343,2.2343,0,0,0,.1269-.9447,1.3141,1.3141,0,0,0-.7292-.7914C286.5118,191.616,281.6249,190.2337,279.5176,190.4919Z" fill="none"/>
</clipPath>
<clipPath id="b" transform="translate(0 -92.426)">
<polygon points="279.16 289.93 302.45 366.05 313.73 430.79 322.57 430.79 310.65 289.93" fill="none"/>
</clipPath>
<clipPath id="a" transform="translate(0 -92.426)">
<path d="m270.83 289.93c1.582 41.795-0.28 63.354-0.634 67.151s-5.2 28.419-16.675 74.983l9.424-3.237c18.134-42.706 24.314-64.9 26.394-70.508s7.6-28.4 16.572-68.388z" fill="none"/>
</clipPath>
<clipPath id="f" transform="translate(0 -92.426)">
<path d="m270.5 289.93q-4.8859 14.646-1.856 38.783h30.858l8.485-38.783z" fill="none"/>
</clipPath>
<clipPath id="e" transform="translate(0 -92.426)">
<path d="m255.84 282.52c4.946 25.824-4.117 23.902 0 0z" fill="none"/>
</clipPath>
<clipPath id="d" transform="translate(0 -92.426)">
<path d="m283.72 251.3-0.918-5.354c17.149-19.849 50.095-28 67.547-52.336l7.26 5.857c-5.227 42.214-45.412 52.679-73.889 51.833z" fill="none"/>
</clipPath>
<clipPath id="ah" transform="translate(0 -92.426)">
<path d="m277.92 308.5h-13.828q3.8631-9.0071 8.114-21.348 1.7571 14.706 5.714 21.348z" fill="none"/>
</clipPath>
<clipPath id="ag" transform="translate(0 -92.426)">
<path d="m292.25 228.45-4.6592-0.6526c-2.2252 26.059 14.864 54.756 9.6605 84.215l9.2136 0.8754c26.196-33.395 6.8929-65.607-13.5-85.089 0.0049 0.0049-0.5367 0.8294-0.7149 0.6512z" fill="none"/>
</clipPath>
<clipPath id="af" transform="translate(0 -92.426)">
<path d="m287.83 194.75c5.9976 4.6488 12.508 20.317 8.7586 23.295-1.4953 1.1872-5.5683 1.7238-10.213 1.1469l9.54 15.238-13.573 6.044-5.0261-23.86c-3.9676-1.8979-7.4007-4.8607-8.9749-9.19-4.5415-12.484 13.492-17.324 19.488-12.674z" fill="none"/>
</clipPath>
<clipPath id="ae" transform="translate(0 -92.426)">
<path d="M279.5176,190.4919a19.3879,19.3879,0,0,0-5.9592,1.9012,10.693,10.693,0,0,0-1.5059-5.2437,16.4712,16.4712,0,0,0-3.59-3.7505,6.6872,6.6872,0,0,0-2.01-1.3172,4.43,4.43,0,0,0-2.378-.1754,5.6156,5.6156,0,0,0-2.2026.9764c-.2907.21-.5135.4849-.7922.7076s-.5314.0954-.8557-.0033a4.4193,4.4193,0,0,0-2.4743.1226,5.9383,5.9383,0,0,0-2.2669,1.3533,5.1306,5.1306,0,0,0-1.4231,2.166,3.6581,3.6581,0,0,0-.1908,1.18c.0043.1645.0309.2513-.0845.3661s-.2526.1706-.3706.2746a5.6616,5.6616,0,0,0-1.7694,4.02,9.3548,9.3548,0,0,0,1.0957,3.72,16.7081,16.7081,0,0,0,5.5741,5.5131,9.09,9.09,0,0,0,5.3712.5193,13.4338,13.4338,0,0,0-.3784,5.1738,22.3939,22.3939,0,0,0,1.2345,5.5343,18.1416,18.1416,0,0,0,2.4806,4.8918,5.9391,5.9391,0,0,0,3.9984,2.4515,12.6731,12.6731,0,0,0,2.258.046,13.45,13.45,0,0,0,2.1941-.2378,4.2253,4.2253,0,0,0,3.3081-2.4094,7.5092,7.5092,0,0,0,.426-1.6848c.0214-.1979.03-.3256-.1491-.4308a3.2477,3.2477,0,0,0-.727-.24,5.3351,5.3351,0,0,1-3.16-2.46c-.7433-1.256-1.1492-3.1244-.119-4.2764,1.2717-1.4216,3.3876-1.3825,5.14-1.2472a8.5045,8.5045,0,0,1,1.54-6.6778c1.66-2.0281,4.0577-3.247,5.8452-5.1481a4.4359,4.4359,0,0,0,1.13-1.7079,2.2327,2.2327,0,0,0,.1269-.9447,1.3138,1.3138,0,0,0-.7292-.7914C286.5118,191.616,281.6249,190.2337,279.5176,190.4919Z" fill="none"/>
</clipPath>
<clipPath id="ad" transform="translate(0 -92.426)">
<polygon points="276.07 289.93 285.97 337.49 316.21 337.49 311.7 289.93" fill="none"/>
</clipPath>
<clipPath id="ac" transform="translate(0 -92.426)">
<path d="m270.5 289.93q-4.8859 17.959-1.856 47.556h30.858l8.485-47.556z" fill="none"/>
</clipPath>
<clipPath id="ab" transform="translate(0 -92.426)">
<path d="m283.72 251.3-0.918-5.354c17.149-19.849 50.095-28 67.547-52.336l7.26 5.857c-5.227 42.214-45.412 52.679-73.889 51.833z" fill="none"/>
</clipPath>
<clipPath id="aa" transform="translate(0 -92.426)">
<path d="m265.26 295.5h47.342c2.163 0 1.756-3.124 1.443-4.7-3.609-18.192-18.565-38.023-18.565-63.919l-12.789-1.92c-11.294 18.167-15.201 40.532-17.431 70.539z" fill="none"/>
</clipPath>
<clipPath id="z" transform="translate(0 -92.426)">
<path d="m266.21 278.46q-18.869 35.825-19.868 38.174c-1.4962 3.5233-7.4637 5.2026-10.433 6.3422 1.6506 4.3206 1.6208-2.6462 3.636 2.8721 1.84 5.0357 3.5242 2.391 3.5242 2.391 2.3244 5.3038 6.1776 4.5892 5.77 2.41-1.0135-5.4293 4.3268-9.32 4.9715-11.219 0.8788-2.59 7.5952-12.041 21.588-31.865z" fill="none"/>
</clipPath>
<clipPath id="y" transform="translate(0 -92.426)">
<path d="m285.67 224.96a8.5516 8.5516 0 0 1 1.268 0.087l4.277 0.244q18.4 62.352 10.148 83.2h-37.682c-2.208 5.148-4.565 8.416-6.582 11.93h-2.738l-8.221-5.769c-0.956-30.9 7.857-50.287 23.5-71.838a7.8085 7.8085 0 0 1-4.712-3.989c-4.991-9.006-3.189-13.965 2.145-15.595s10.098 1.73 18.597 1.73z" fill="none"/>
</clipPath>
<clipPath id="x" transform="translate(0 -92.426)">
<path d="m277.93 308.5h-13.828q3.8631-9.007 8.114-21.348 1.757 14.706 5.714 21.348z" fill="none"/>
</clipPath>
<clipPath id="w" transform="translate(0 -92.426)">
<path d="M369.397,297.368c10.175,17.069,22.025,33.6,29.141,52.26-.287-2.2-.591-4.4-.931-6.592-1.806-11.632-4.05-23.18-6.408-34.713-1.2-5.872-2.471-11.723-3.774-17.573-.7-3.142-1.393-6.286-2.108-9.426-.173-.761-.322-2.089-.539-3.435,6.916,22.7,13.585,45.407,18.464,68.648q.96,4.575,1.631,9.134c.153-.693.3-1.387.467-2.078a134.3232,134.3232,0,0,1,8.46-24.263,73.5547,73.5547,0,0,1,5.9-10.71c1.421-2.106,4.773-4.609,6.07-6.765-7.091,13.006-9.652,29.28-13.746,43.42q-1.5,5.1765-2.99,10.347c6.175-12.383,15.755-22.557,29.075-26.966-16.1229,10.653-25.794,29.309-32.311,48.39-.021.226-.047.453-.069.679a25.5422,25.5422,0,0,1,7.607-9.237c7.007-4.936,14.78-3.5,21.577.736-5.335-3.391-14.975-.3-19.464,3.143a44.8471,44.8471,0,0,0-8.3439,9.006c-.5711.774-1.3511,1.677-2.175,2.641a119.0524,119.0524,0,0,1-5.7,22.324c.44-2.12.122-5.51.2439-7.09.013-.171.024-.342.037-.513q-.6069,2.425-1.173,4.788a65.5183,65.5183,0,0,0,1.473-9.3q.123-2.04.246-4.081-.04-3.872-.313-7.769c-.638-2.523-1.352-4.9-1.94-6.882a88.953,88.953,0,0,0-9.073-20.364,80.3969,80.3969,0,0,0-12.518-15.87c-2.606-2.571-5.333-5.02-8.021-7.5a59.7328,59.7328,0,0,0-4.212-4.257c10.945,6.034,22.211,12.562,30.2,22.285q-1.4-5.3921-3.028-10.611C385.691,331.554,378.801,313.289,369.397,297.368Z" fill="none"/>
</clipPath>
<clipPath id="v" transform="translate(0 -92.426)">
<path d="m380.33 393.99c0 19.567 1.55 35.43 22.348 35.43s22.352-15.863 22.352-35.43" fill="none"/>
</clipPath>
<clipPath id="u" transform="translate(0 -92.426)">
<path d="m202.77 217.65a48.926 48.926 0 1 1-53.79 43.521 48.926 48.926 0 0 1 53.79-43.521z" fill="none"/>
</clipPath>
<clipPath id="t" transform="translate(0 -92.426)">
<path d="m70.967 245.17c5.2632 5.2234 9.7107 21.197 5.7189 23.638-1.5918 0.974-5.6062 1.0082-10.042-0.1045l7.4391 15.921-13.886 4.2452-2.0308-23.744c-3.6218-2.3142-6.5988-5.5973-7.6112-9.9861-2.9188-12.648 15.148-15.194 20.412-9.9695z" fill="none"/>
</clipPath>
<clipPath id="s" transform="translate(0 -92.426)">
<path d="M57.9465,268.2409c-4.1126-7.22-10.6937-10.9875-10.9946-14.6841a5.5,5.5,0,0,1,2.7246-5.5459q-.402-7.3893,9.1678-9.1931c9.57-1.8037,16.3946.3124,16.54,9.517-2.2425.6856-5.1978.7024-8.5184,3.2317q-1.5792,1.2066-1.2945,4.8808l-1.6917.5172q-3.711-3.3306-5.7746-1.5159t.52,5.5924l1.1213,6.6466Z" fill="none"/>
</clipPath>
<clipPath id="r" transform="translate(0 -92.426)">
<ellipse cx="52.534" cy="397.35" rx="46.583" ry="44.466" fill="none"/>
</clipPath>
<clipPath id="q" transform="translate(0 -92.426)">
<path d="m132.36 349.11 0.174-0.1c5-2.8 13.169 1 13.163 5.233-0.017 12.8-11.7 73.149-12.312 76.964s-7.146 4.822-7.526 0.013c-0.606-7.653-1.731-34.147-0.6-46.411 0.465-5.062 0.965-9.884 1.458-14.185q-9.2 16.608-28.449 47.562l-6.967-3.183q8.2068-27.039 13.459-38.177c6-12.715 11.617-23.6 13.983-27.438 3.716-6.032 10.194-3.932 13.617-0.278z" fill="none"/>
</clipPath>
<clipPath id="o" transform="translate(0 -92.426)">
<path d="m91.797 404.99 23.913-56.649c5.729-9.215 21.791 1.875 19.837 7.22-4.435 12.134-26.992 51.418-28.314 55.034z" fill="none"/>
</clipPath>
<clipPath id="n" transform="translate(0 -92.426)">
<path d="M90.468,411.426a12.989,12.989,0,0,0-2.907,3,30.35,30.35,0,0,0-1.915,4.413l29.55,17.061q3.35-3.1429,1.044-4.879t-3.807-2.929l-10.199-14.053a.605.605,0,0,0-.845-.134l-.014.01-2.119,1.632h0a10.8789,10.8789,0,0,1-4.353-1.084,9.7656,9.7656,0,0,1-2.679-2.8h0a1.21,1.21,0,0,0-1.687-.286A.7756.7756,0,0,0,90.468,411.426Z" fill="none"/>
</clipPath>
<clipPath id="m" transform="translate(0 -92.426)">
<path d="M124.332,428.14a12.9919,12.9919,0,0,0-1.015,4.06,30.3557,30.3557,0,0,0,.545,4.776h34.122q1.33-4.4-1.536-4.748t-4.761-.633l-15.859-7.07a.6.6,0,0,0-.7954.2956h0l-.0046.01-.007.016-1.019,2.473h0a10.8786,10.8786,0,0,1-4.311,1.238,9.7636,9.7636,0,0,1-3.722-1.088h0a1.21,1.21,0,0,0-1.6.6A.4456.4456,0,0,0,124.332,428.14Z" fill="none"/>
</clipPath>
<clipPath id="l" transform="translate(0 -92.426)">
<path d="m147.38 358.59c0 16.072-7.633 53.563-7.638 57.1l-16.422 0.013q3.606-50.179 2.557-50.719c-1.049-0.541-42.984 4.187-55.561 4.187-18.136 0-25.639-11.437-26.248-32.623h35.927c7.315 0.783 45.472 8.479 59.642 11.125 6.067 1.133 7.743 6.49 7.743 10.917z" fill="none"/>
</clipPath>
<clipPath id="k" transform="translate(0 -92.426)">
<path d="M26.502,313.832l13.247.05q-15.1341,49.0329-16.067,51.346c-1.4,3.469,1.562,8.753,2.829,11.592-4.126,1.846-3.686-4.991-8.891-2.57-4.751,2.21-8.365,6.215-13.853,2.828-.675-.416-1.414-1.984.372-3.209,4.451-3.052,10.866-8.394,11.733-10.152q1.773-3.6,10.631-49.886Zm83.8,15.131,17.141,16.719a51.9453,51.9453,0,0,1,12.257,7.046c.716.864,1.5,2.519-1.874,1.779s-6.948-1.368-7.581-.272,1.233,2.775.062,4.209q-1.1711,1.434-7.873-9.124l-17.821-10.508Z" fill="none"/>
</clipPath>
<clipPath id="j" transform="translate(0 -92.426)">
<path d="M66.869,276.252l5.231-.9c8.241,29.131,50.582,48.987,53.182,59.877.953,3.994-1.921,6.012-.436,7.229l-6.8,4.978c-1.151-1.343-3.609,1.114-8.74-.6S66.869,310.745,66.869,276.252Z" fill="none"/>
</clipPath>
<clipPath id="i" transform="translate(0 -92.426)">
<path d="m57.565 270.17 16.295 1.139a2.42 2.42 0 0 1 2.2441 2.5839v0.0021l-0.435 6.2c-0.617 38.6 21.692 48.435 16.725 63.911-4.1 12.776-43.353 26.51-50.145 13.987-2.75-5.07-4-11.2-4.138-17.869q-2.6 7.683-4.119 13.228c-1.742 6.376-8.5 7.39-8.5 9.846l-8.9-2.456c0.6-3.337-3.592-4.962-2.467-12.418q7.56-50.107 40.623-72.643l0.229-3.262a2.42 2.42 0 0 1 2.5788-2.25z" fill="none"/>
</clipPath>
<clipPath id="h" transform="translate(0 -92.426)">
<path d="m253.6 428.78a13.29 13.29 0 0 0-1.038 4.148 31.055 31.055 0 0 0 0.558 4.885h34.9q1.36-4.5-1.571-4.856t-4.869-0.648l-16.218-7.235a0.619 0.619 0 0 0-0.817 0.313l-0.0069 0.016-1.043 2.529a11.126 11.126 0 0 1-4.41 1.266 9.9858 9.9858 0 0 1-3.807-1.113 1.238 1.238 0 0 0-1.641 0.609q-0.0211 0.044-0.0371 0.086z" fill="none"/>
</clipPath>
</defs>
<g data-name="Group 680">
<path transform="translate(0 -92.426)" d="m210.4 107.08c-47.244 23.41-165.27 75.793-179.23 186.99s36.02 147.94 190.09 120.76 243.67-177.13 211.21-240.8-144.99-105.15-222.07-66.953z" fill="#e8ecef" data-name="Path 405"/>
<g clip-path="url(#ai)">
<g data-name="Group 660">
<path transform="translate(0 -92.426)" d="m319.21 307.39 21.443-135.39 60.469 9.5774-21.443 135.39z" fill="#d3a081" data-name="Path 469"/>
</g>
</g>
<path transform="translate(0 -92.426)" d="m274.64 156.36c-31.718-21.14-107.84-76.598-170.46-37.553s-60.461 88.12 17.872 178.41 192.38 84.54 211.3 35.376-6.9659-141.74-58.717-176.23z" fill="#6882b3" data-name="Path 434"/>
<g data-name="Group 655">
<g clip-path="url(#c)">
<g data-name="Group 647">
<path transform="translate(0 -92.426)" d="m307.63 421.93h42.075v18.976h-42.075z" fill="#e3e3e3" data-name="Path 448"/>
</g>
</g>
<g clip-path="url(#p)">
<g data-name="Group 642">
<path transform="translate(0 -92.426)" d="m259.87 197.62 29.408-13.095 20.902 46.94-29.408 13.095z" fill="#d3a081" data-name="Path 438"/>
</g>
</g>
<g clip-path="url(#g)">
<g data-name="Group 643">
<path transform="translate(0 -92.426)" d="m244.6 186.14 37.044-16.496 19.265 43.264-37.044 16.496z" fill="#191846" data-name="Path 440"/>
</g>
</g>
<g clip-path="url(#b)">
<g data-name="Group 644">
<path transform="translate(0 -92.426)" d="m276.07 286.84h49.6v147.05h-49.6z" fill="#ba8a71" data-name="Path 442"/>
</g>
</g>
<g clip-path="url(#a)">
<g data-name="Group 645">
<path transform="translate(0 -92.426)" d="m250.43 286.84h58.577v148.32h-58.577z" fill="#d3a081" data-name="Path 444"/>
</g>
</g>
<g clip-path="url(#f)">
<g data-name="Group 649">
<path transform="translate(0 -92.426)" d="m264.39 286.84h46.69v44.971h-46.69z" fill="#88c5cb" data-name="Path 452"/>
</g>
</g>
<g clip-path="url(#e)">
<g data-name="Group 650">
<path transform="translate(0 -92.426)" d="m231.62 278.92h137.07v61.223h-137.07z" fill="#d3a081" data-name="Path 454"/>
</g>
</g>
<g clip-path="url(#d)">
<g data-name="Group 651">
<path transform="translate(0 -92.426)" d="m278.99 253.99 6.054-69.2 76.367 6.681-6.054 69.2z" fill="#e77513" data-name="Path 456"/>
</g>
</g>
<g clip-path="url(#ah)">
<g data-name="Group 654">
<path transform="translate(0 -92.426)" d="m261 284.05h20.016v27.536h-20.016z" data-name="Path 462"/>
</g>
</g>
</g>
<g clip-path="url(#ag)">
<g data-name="Group 659">
<path transform="translate(0 -92.426)" d="m290.66 219.42-45.078 53.493 57.827 48.31 45.078-53.493z" fill="#ff8600" data-name="Path 467"/>
</g>
</g>
<g clip-path="url(#af)">
<g data-name="Group 642-2">
<path transform="translate(0 -92.426)" d="m259.87 197.62 29.408-13.095 20.902 46.94-29.408 13.095z" fill="#d3a081" data-name="Path 438-2"/>
</g>
</g>
<g clip-path="url(#ae)">
<g data-name="Group 643-2">
<path transform="translate(0 -92.426)" d="m244.6 186.14 37.044-16.496 19.265 43.264-37.044 16.496z" fill="#191846" data-name="Path 440-2"/>
</g>
</g>
<g clip-path="url(#b)">
<g data-name="Group 644-2">
<path transform="translate(0 -92.426)" d="m276.07 286.84h49.6v147.05h-49.6z" fill="#ba8a71" data-name="Path 442-2"/>
</g>
</g>
<g clip-path="url(#a)">
<g data-name="Group 645-2">
<path transform="translate(0 -92.426)" d="m250.43 286.84h58.577v148.32h-58.577z" fill="#d3a081" data-name="Path 444-2"/>
</g>
</g>
<g clip-path="url(#ad)">
<g data-name="Group 648">
<path transform="translate(0 -92.426)" d="m272.98 286.14h46.326v55.143h-46.326z" fill="#121b87" data-name="Path 450"/>
</g>
</g>
<g clip-path="url(#ac)">
<g data-name="Group 649-2">
<path transform="translate(0 -92.426)" d="m264.39 286.14h46.69v55.143h-46.69z" fill="#1b1bc2" data-name="Path 452-2"/>
</g>
</g>
<g clip-path="url(#ab)">
<g data-name="Group 651-2">
<path transform="translate(0 -92.426)" d="m278.99 253.99 6.054-69.2 76.367 6.681-6.054 69.2z" fill="#f78c00" data-name="Path 456-2"/>
</g>
</g>
<g clip-path="url(#aa)">
<g data-name="Group 652">
<path transform="translate(0 -92.426)" d="m266.17 221.87h55.224v76.726h-55.224z" fill="#dce3e8" data-name="Path 458"/>
</g>
</g>
<g clip-path="url(#z)">
<g data-name="Group 664">
<path transform="translate(0 -92.426)" d="m293.18 306.98-89.929-103.45-46.206 40.166 89.929 103.45z" fill="#dc9e7c" data-name="Path 595"/>
</g>
</g>
<g clip-path="url(#y)">
<g data-name="Group 653">
<path transform="translate(0 -92.426)" d="m244.43 219.69h62.577v104.89h-62.577z" fill="#ff9600" data-name="Path 460"/>
</g>
</g>
<g clip-path="url(#x)">
<g data-name="Group 654-2">
<path transform="translate(0 -92.426)" d="m261 284.05h20.016v27.536h-20.016z" data-name="Path 462-2"/>
</g>
</g>
<g data-name="Group 574">
<g clip-path="url(#w)">
<g data-name="Group 572">
<path transform="translate(0 -92.426)" d="m361.26 275.16h79.581v143.9h-79.581z" fill="#88c5cb" data-name="Path 323"/>
</g>
</g>
<g clip-path="url(#v)">
<g data-name="Group 573">
<path transform="translate(0 -92.426)" d="m377.61 391.26h50.147v40.88h-50.147z" fill="#6782b3" data-name="Path 325"/>
</g>
</g>
</g>
<g data-name="Group 665">
<g data-name="Group 504">
<g data-name="Group 438">
<path transform="translate(0 -92.426)" d="m203.27 212.95a53.662 53.662 0 1 1-58.997 47.734 53.662 53.662 0 0 1 58.997-47.734z" data-name="Path 98"/>
<path transform="translate(0 -92.426)" d="m262.67 351.78a5.3941 5.3941 0 0 1-7.5647-0.9841q-0.0687-0.0894-0.1337-0.1815l-27.903-39.564 5.3484-4.1163 31.102 37.105a5.3941 5.3941 0 0 1-0.6718 7.5989q-0.0868 0.073-0.1767 0.1416z" data-name="Path 95"/>
<path transform="translate(0 -92.426)" d="m202.77 217.65a48.926 48.926 0 1 1-53.79 43.521 48.926 48.926 0 0 1 53.79-43.521z" fill="#c4daf5" data-name="Path 471"/>
<path transform="translate(0 -92.426)" d="m202.77 217.65a48.926 48.926 0 1 1-53.79 43.521 48.926 48.926 0 0 1 53.79-43.521z" fill="#c4daf5" data-name="Path 472"/>
</g>
</g>
<g clip-path="url(#u)">
<g fill="#fff" data-name="Mask Group 1">
<rect transform="translate(-137.96 172.08) rotate(-54.975)" x="109.7" y="259.84" width="151.02" height="10.001" opacity=".342" style="isolation:isolate" data-name="Rectangle 929"/>
<rect transform="translate(-136.24 186.22) rotate(-54.975)" x="124.15" y="267.25" width="151.02" height="6.0007" opacity=".342" style="isolation:isolate" data-name="Rectangle 930"/>
</g>
</g>
</g>
<path transform="translate(0 -92.426)" d="m243.63 318.84c2.6344 0.138 4.1707 4.7578 4.1361 5.4169s-1.627-2.8892-4.2614-3.0272-4.65 0.0577-4.707-1.4413 2.1989-1.0865 4.8323-0.9484z" fill="#dc9e7c" data-name="Path 597"/>
<ellipse transform="translate(-167.22 231.03) rotate(-53.003)" cx="240.75" cy="329.42" rx="2.5011" ry="6.5029" fill="#dc9e7c" data-name="Ellipse 1"/>
<g data-name="Group 678">
<g clip-path="url(#t)">
<g data-name="Group 667">
<path transform="translate(0 -92.426)" d="m43.507 244.63 30.084-9.1977 14.681 48.019-30.084 9.1978z" fill="#b28b66" data-name="Path 598"/>
</g>
</g>
<g clip-path="url(#s)">
<g data-name="Group 668">
<path transform="translate(0 -92.426)" d="m39.954 241.28 33.893-10.362 9.96 32.576-33.894 10.362z" fill="#191846" data-name="Path 600"/>
</g>
</g>
<g clip-path="url(#r)">
<g data-name="Group 669">
<path transform="translate(0 -92.426)" d="M2.926,349.859h99.216V444.84H2.926Z" fill="#75c7cd" data-name="Path 602"/>
</g>
</g>
<g clip-path="url(#q)">
<g data-name="Group 670">
<path transform="translate(0 -92.426)" d="m88.275 342.56h60.451v94.923h-60.451z" fill="#b28b66" data-name="Path 604"/>
</g>
</g>
<g clip-path="url(#o)">
<g data-name="Group 671">
<path transform="translate(0 -92.426)" d="m113.13 337.53 28.431 10.348-25.211 69.266-28.431-10.348z" fill="#1e27ce" data-name="Path 606"/>
</g>
</g>
<g clip-path="url(#n)">
<g data-name="Group 672">
<path transform="translate(0 -92.426)" d="m90.32 403.61 35.627 20.569-9.277 16.068-35.628-20.569z" fill="#e3e3e3" data-name="Path 608"/>
</g>
</g>
<g clip-path="url(#m)">
<g data-name="Group 673">
<path transform="translate(0 -92.426)" d="M120.292,421.447H161.43V440H120.292Z" fill="#e3e3e3" data-name="Path 610"/>
</g>
</g>
<g clip-path="url(#l)">
<g data-name="Group 674">
<path transform="translate(0 -92.426)" d="m41.04 333.52h109.36v85.205h-109.36z" fill="#2b44ff" data-name="Path 612"/>
</g>
</g>
<g clip-path="url(#k)">
<g data-name="Group 675">
<path transform="translate(0 -92.426)" d="M0,310.807H143.349v70.605H0Z" fill="#b28b66" data-name="Path 614"/>
</g>
</g>
<g clip-path="url(#j)">
<g data-name="Group 676">
<path transform="translate(0 -92.426)" d="m64.237 271.63 69.482 6.079-6.481 74.081-69.482-6.079z" fill="#db2720" data-name="Path 616"/>
</g>
</g>
<g clip-path="url(#i)">
<g data-name="Group 677">
<path transform="translate(0 -92.426)" d="m10.911 267.14h85.23v99.08h-85.23z" fill="#ff4033" data-name="Path 618"/>
</g>
</g>
</g>
<g clip-path="url(#h)">
<g data-name="Group 646">
<path transform="translate(0 -92.426)" d="m249.46 421.93h42.075v18.976h-42.075z" fill="#e3e3e3" data-name="Path 446"/>
</g>
</g>
<g clip-path="url(#c)">
<g data-name="Mask Group 2">
<path transform="translate(0 -92.426)" d="m307.63 421.93h42.075v18.976h-42.075z" fill="#e3e3e3" data-name="Path 620"/>
</g>
</g>
</g>
<g data-name="Group 680-2">
<path transform="translate(0 -92.426)" d="m210.4 107.08c-47.244 23.41-165.27 75.793-179.23 186.99s36.02 147.94 190.09 120.76 243.67-177.13 211.21-240.8-144.99-105.15-222.07-66.953z" fill="#e8ecef" data-name="Path 405-2"/>
<g clip-path="url(#ai)">
<g data-name="Group 660-2">
<path transform="translate(0 -92.426)" d="m319.21 307.39 21.443-135.39 60.469 9.5774-21.443 135.39z" fill="#d3a081" data-name="Path 469-2"/>
</g>
</g>
<path transform="translate(0 -92.426)" d="m274.64 156.36c-31.718-21.14-107.84-76.598-170.46-37.553s-60.461 88.12 17.872 178.41 192.38 84.54 211.3 35.376-6.9659-141.74-58.717-176.23z" fill="#6882b3" data-name="Path 434-2"/>
<g data-name="Group 655-2">
<g clip-path="url(#c)">
<g data-name="Mask Group 647">
<path transform="translate(0 -92.426)" d="m307.63 421.93h42.075v18.976h-42.075z" fill="#e3e3e3" data-name="Path 448-2"/>
</g>
</g>
<g clip-path="url(#p)">
<g data-name="Group 642-3">
<path transform="translate(0 -92.426)" d="m259.87 197.62 29.408-13.095 20.902 46.94-29.408 13.095z" fill="#d3a081" data-name="Path 438-3"/>
</g>
</g>
<g clip-path="url(#g)">
<g data-name="Group 643-3">
<path transform="translate(0 -92.426)" d="m244.6 186.14 37.044-16.496 19.265 43.264-37.044 16.496z" fill="#191846" data-name="Path 440-3"/>
</g>
</g>
<g clip-path="url(#b)">
<g data-name="Group 644-3">
<path transform="translate(0 -92.426)" d="m276.07 286.84h49.6v147.05h-49.6z" fill="#ba8a71" data-name="Path 442-3"/>
</g>
</g>
<g clip-path="url(#a)">
<g data-name="Group 645-3">
<path transform="translate(0 -92.426)" d="m250.43 286.84h58.577v148.32h-58.577z" fill="#d3a081" data-name="Path 444-3"/>
</g>
</g>
<g clip-path="url(#f)">
<g data-name="Group 649-3">
<path transform="translate(0 -92.426)" d="m264.39 286.84h46.69v44.971h-46.69z" fill="#88c5cb" data-name="Path 452-3"/>
</g>
</g>
<g clip-path="url(#e)">
<g data-name="Group 650-2">
<path transform="translate(0 -92.426)" d="m231.62 278.92h137.07v61.223h-137.07z" fill="#d3a081" data-name="Path 454-2"/>
</g>
</g>
<g clip-path="url(#d)">
<g data-name="Group 651-3">
<path transform="translate(0 -92.426)" d="m278.99 253.99 6.054-69.2 76.367 6.681-6.054 69.2z" fill="#e77513" data-name="Path 456-3"/>
</g>
</g>
<g clip-path="url(#ah)">
<g data-name="Group 654-3">
<path transform="translate(0 -92.426)" d="m261 284.05h20.016v27.536h-20.016z" data-name="Path 462-3"/>
</g>
</g>
</g>
<g clip-path="url(#ag)">
<g data-name="Group 659-2">
<path transform="translate(0 -92.426)" d="m290.66 219.42-45.078 53.493 57.827 48.31 45.078-53.493z" fill="#ff8600" data-name="Path 467-2"/>
</g>
</g>
<g clip-path="url(#af)">
<g data-name="Group 642-4">
<path transform="translate(0 -92.426)" d="m259.87 197.62 29.408-13.095 20.902 46.94-29.408 13.095z" fill="#d3a081" data-name="Path 438-4"/>
</g>
</g>
<g clip-path="url(#ae)">
<g data-name="Group 643-4">
<path transform="translate(0 -92.426)" d="m244.6 186.14 37.044-16.496 19.265 43.264-37.044 16.496z" fill="#191846" data-name="Path 440-4"/>
</g>
</g>
<g clip-path="url(#b)">
<g data-name="Group 644-4">
<path transform="translate(0 -92.426)" d="m276.07 286.84h49.6v147.05h-49.6z" fill="#ba8a71" data-name="Path 442-4"/>
</g>
</g>
<g clip-path="url(#a)">
<g data-name="Group 645-4">
<path transform="translate(0 -92.426)" d="m250.43 286.84h58.577v148.32h-58.577z" fill="#d3a081" data-name="Path 444-4"/>
</g>
</g>
<g clip-path="url(#ad)">
<g data-name="Group 648-2">
<path transform="translate(0 -92.426)" d="m272.98 286.14h46.326v55.143h-46.326z" fill="#121b87" data-name="Path 450-2"/>
</g>
</g>
<g clip-path="url(#ac)">
<g data-name="Group 649-4">
<path transform="translate(0 -92.426)" d="m264.39 286.14h46.69v55.143h-46.69z" fill="#1b1bc2" data-name="Path 452-4"/>
</g>
</g>
<g clip-path="url(#ab)">
<g data-name="Group 651-4">
<path transform="translate(0 -92.426)" d="m278.99 253.99 6.054-69.2 76.367 6.681-6.054 69.2z" fill="#f78c00" data-name="Path 456-4"/>
</g>
</g>
<g clip-path="url(#aa)">
<g data-name="Group 652-2">
<path transform="translate(0 -92.426)" d="m266.17 221.87h55.224v76.726h-55.224z" fill="#dce3e8" data-name="Path 458-2"/>
</g>
</g>
<g clip-path="url(#z)">
<g data-name="Group 664-2">
<path transform="translate(0 -92.426)" d="m293.18 306.98-89.929-103.45-46.206 40.166 89.929 103.45z" fill="#dc9e7c" data-name="Path 595-2"/>
</g>
</g>
<g clip-path="url(#y)">
<g data-name="Group 653-2">
<path transform="translate(0 -92.426)" d="m244.43 219.69h62.577v104.89h-62.577z" fill="#ff9600" data-name="Path 460-2"/>
</g>
</g>
<g clip-path="url(#x)">
<g data-name="Group 654-4">
<path transform="translate(0 -92.426)" d="m261 284.05h20.016v27.536h-20.016z" data-name="Path 462-4"/>
</g>
</g>
<g data-name="Group 574-2">
<g clip-path="url(#w)">
<g data-name="Group 572-2">
<path transform="translate(0 -92.426)" d="m361.26 275.16h79.581v143.9h-79.581z" fill="#88c5cb" data-name="Path 323-2"/>
</g>
</g>
<g clip-path="url(#v)">
<g data-name="Group 573-2">
<path transform="translate(0 -92.426)" d="m377.61 391.26h50.147v40.88h-50.147z" fill="#6782b3" data-name="Path 325-2"/>
</g>
</g>
</g>
<g data-name="Group 665-2">
<g data-name="Group 504-2">
<g data-name="Group 438-2">
<path transform="translate(0 -92.426)" d="m203.27 212.95a53.662 53.662 0 1 1-58.997 47.734 53.662 53.662 0 0 1 58.997-47.734z" data-name="Path 98-2"/>
<path transform="translate(0 -92.426)" d="m262.67 351.78a5.3941 5.3941 0 0 1-7.5647-0.9841q-0.0687-0.0894-0.1337-0.1815l-27.903-39.564 5.3484-4.1163 31.102 37.105a5.3941 5.3941 0 0 1-0.6718 7.5989q-0.0868 0.073-0.1767 0.1416z" data-name="Path 95-2"/>
<path transform="translate(0 -92.426)" d="m202.77 217.65a48.926 48.926 0 1 1-53.79 43.521 48.926 48.926 0 0 1 53.79-43.521z" fill="#c4daf5" data-name="Path 471-2"/>
<path transform="translate(0 -92.426)" d="m202.77 217.65a48.926 48.926 0 1 1-53.79 43.521 48.926 48.926 0 0 1 53.79-43.521z" fill="#c4daf5" data-name="Path 472-2"/>
</g>
</g>
<g clip-path="url(#u)">
<g fill="#fff" data-name="Mask Group 1-2">
<rect transform="translate(-137.96 172.08) rotate(-54.975)" x="109.7" y="259.84" width="151.02" height="10.001" opacity=".342" style="isolation:isolate" data-name="Rectangle 929-2"/>
<rect transform="translate(-136.24 186.22) rotate(-54.975)" x="124.15" y="267.25" width="151.02" height="6.0007" opacity=".342" style="isolation:isolate" data-name="Rectangle 930-2"/>
</g>
</g>
</g>
<path transform="translate(0 -92.426)" d="m243.63 318.84c2.6344 0.138 4.1707 4.7578 4.1361 5.4169s-1.627-2.8892-4.2614-3.0272-4.65 0.0577-4.707-1.4413 2.1989-1.0865 4.8323-0.9484z" fill="#dc9e7c" data-name="Path 597-2"/>
<ellipse transform="translate(-167.22 231.03) rotate(-53.003)" cx="240.75" cy="329.42" rx="2.5011" ry="6.5029" fill="#dc9e7c" data-name="Ellipse 1-2"/>
<g data-name="Group 678-2">
<g clip-path="url(#t)">
<g data-name="Group 667-2">
<path transform="translate(0 -92.426)" d="m43.507 244.63 30.084-9.1977 14.681 48.019-30.084 9.1978z" fill="#b28b66" data-name="Path 598-2"/>
</g>
</g>
<g clip-path="url(#s)">
<g data-name="Group 668-2">
<path transform="translate(0 -92.426)" d="m39.954 241.28 33.893-10.362 9.96 32.576-33.894 10.362z" fill="#191846" data-name="Path 600-2"/>
</g>
</g>
<g clip-path="url(#r)">
<g data-name="Group 669-2">
<path transform="translate(0 -92.426)" d="M2.926,349.859h99.216V444.84H2.926Z" fill="#75c7cd" data-name="Path 602-2"/>
</g>
</g>
<g clip-path="url(#q)">
<g data-name="Group 670-2">
<path transform="translate(0 -92.426)" d="m88.275 342.56h60.451v94.923h-60.451z" fill="#b28b66" data-name="Path 604-2"/>
</g>
</g>
<g clip-path="url(#o)">
<g data-name="Group 671-2">
<path transform="translate(0 -92.426)" d="m113.13 337.53 28.431 10.348-25.211 69.266-28.431-10.348z" fill="#1e27ce" data-name="Path 606-2"/>
</g>
</g>
<g clip-path="url(#n)">
<g data-name="Group 672-2">
<path transform="translate(0 -92.426)" d="m90.32 403.61 35.627 20.569-9.277 16.068-35.628-20.569z" fill="#e3e3e3" data-name="Path 608-2"/>
</g>
</g>
<g clip-path="url(#m)">
<g data-name="Group 673-2">
<path transform="translate(0 -92.426)" d="M120.292,421.447H161.43V440H120.292Z" fill="#e3e3e3" data-name="Path 610-2"/>
</g>
</g>
<g clip-path="url(#l)">
<g data-name="Group 674-2">
<path transform="translate(0 -92.426)" d="m41.04 333.52h109.36v85.205h-109.36z" fill="#2b44ff" data-name="Path 612-2"/>
</g>
</g>
<g clip-path="url(#k)">
<g data-name="Group 675-2">
<path transform="translate(0 -92.426)" d="M0,310.807H143.349v70.605H0Z" fill="#b28b66" data-name="Path 614-2"/>
</g>
</g>
<g clip-path="url(#j)">
<g data-name="Group 676-2">
<path transform="translate(0 -92.426)" d="m64.237 271.63 69.482 6.079-6.481 74.081-69.482-6.079z" fill="#db2720" data-name="Path 616-2"/>
</g>
</g>
<g clip-path="url(#i)">
<g data-name="Group 677-2">
<path transform="translate(0 -92.426)" d="m10.911 267.14h85.23v99.08h-85.23z" fill="#ff4033" data-name="Path 618-2"/>
</g>
</g>
</g>
<g clip-path="url(#h)">
<g data-name="Group 646-2">
<path transform="translate(0 -92.426)" d="m249.46 421.93h42.075v18.976h-42.075z" fill="#e3e3e3" data-name="Path 446-2"/>
</g>
</g>
<g clip-path="url(#c)">
<g data-name="Mask Group 2-2">
<path transform="translate(0 -92.426)" d="m307.63 421.93h42.075v18.976h-42.075z" fill="#e3e3e3" data-name="Path 620-2"/>
</g>
</g>
</g>
</svg>